<?xml version="1.0" encoding="UTF-8" standalone="no"?>
<!-- Created with Inkscape (http://www.inkscape.org/) -->
<svg
   xmlns:svg="http://www.w3.org/2000/svg"
   xmlns="http://www.w3.org/2000/svg"
   version="1.0"
   width="744.09448"
   height="162.28346"
   id="svg3633">
  <defs
     id="defs3635"><clipPath
   id="clp4">
<path
   d="M 0,0 L 111.08,0 L 111.08,55.357 L 0,55.357 L 0,0 z "
   id="path25050" />

</clipPath>










</defs>
  <g
     transform="translate(-658.32926,-326.92829)"
     id="layer1">
    <g
       transform="matrix(1.1668866,0,0,1.1668866,-92.149777,-57.916116)"
       id="g28099">
      <path
         d="M 1148.7006,354.50819 C 1148.7006,349.98445 1152.0728,346.61221 1156.4321,346.61221 C 1160.709,346.61221 1164.0813,349.98445 1164.0813,354.50819 C 1164.0813,359.03185 1160.709,362.4041 1156.4321,362.4041 C 1152.0728,362.4041 1148.7006,359.03185 1148.7006,354.50819 z M 1156.4321,363.96684 C 1161.6137,363.96684 1165.973,359.93664 1165.973,354.50819 C 1165.973,349.07967 1161.6137,345.04947 1156.4321,345.04947 C 1151.2504,345.04947 1146.8088,349.07967 1146.8088,354.50819 C 1146.8088,359.93664 1151.2504,363.96684 1156.4321,363.96684 z M 1154.4581,355.24842 L 1156.3498,355.24842 L 1159.2286,359.93664 L 1161.038,359.93664 L 1157.9948,355.16614 C 1159.5575,355.00165 1160.7913,354.09693 1160.7913,352.20515 C 1160.7913,349.98445 1159.4753,349.07967 1156.9255,349.07967 L 1152.7308,349.07967 L 1152.7308,359.93664 L 1154.4581,359.93664 L 1154.4581,355.24842 z M 1154.4581,353.85017 L 1154.4581,350.47792 L 1156.6788,350.47792 C 1157.8303,350.47792 1159.0641,350.72469 1159.0641,352.04066 C 1159.0641,353.76789 1157.8303,353.85017 1156.4321,353.85017 L 1154.4581,353.85017"
         style="fill:#000000;fill-rule:nonzero;stroke:none"
         id="path27756" />
      <path
         d="M 738.19345,368.16159 L 681.85254,368.16159 C 675.51937,368.16159 669.6796,370.71133 665.23814,375.15279 C 660.96118,379.51203 658.65821,385.26946 658.74042,391.36415 C 658.65821,397.67266 660.96118,403.62753 665.32042,408.00322 C 669.51511,412.20619 675.19033,414.4845 681.19459,414.43511 C 681.11231,414.43511 716.06834,414.43511 716.06834,414.43511 C 723.55305,414.49272 729.14605,419.79779 729.22825,427.05219 C 729.14605,434.05167 723.14185,440.0312 715.98606,440.12163 C 716.06834,440.12163 658.32923,440.12163 658.32923,440.12163 L 658.32923,452.20408 L 716.06834,452.20408 C 729.72175,452.02315 741.07215,440.73855 741.31895,427.05219 C 741.07215,412.97931 730.21525,402.46782 716.06834,402.35266 C 716.06834,402.35266 681.11231,402.35266 681.11231,402.35266 C 678.31581,402.37739 675.76607,401.35744 673.87435,399.47395 C 671.81815,397.41774 670.74887,394.53896 670.74887,391.36415 C 670.74887,388.3785 671.81815,385.68071 673.87435,383.62451 C 676.01284,381.48602 678.80934,380.25226 681.93482,380.25226 C 681.85254,380.25226 738.19345,380.25226 738.19345,380.25226 L 738.19345,368.16159"
         style="fill:#000000;fill-rule:nonzero;stroke:none"
         id="path27758" />
      <path
         d="M 841.16985,367.75034 L 841.16985,424.7821 C 841.16985,429.14135 839.44265,433.21272 836.39935,436.23948 C 833.35615,439.24158 829.40815,440.87015 825.13115,440.8372 C 816.41265,440.90304 809.25705,433.64864 809.01025,424.6505 C 809.01025,424.7821 809.01025,367.75034 809.01025,367.75034 L 797.00185,367.75034 L 797.00185,424.7821 C 797.00185,424.8315 797.00185,424.8726 797.00185,424.91371 L 797.00185,424.91371 C 797.08405,429.15779 795.52135,433.13866 792.56035,436.12432 C 789.51715,439.20047 785.40465,440.87015 780.96315,440.8372 C 776.85075,440.87015 773.06725,439.28268 770.18855,436.37108 C 767.14535,433.32781 765.50025,429.24007 765.58255,424.8726 C 765.58255,424.7821 765.58255,367.75034 765.58255,367.75034 L 753.49185,367.75034 L 753.49185,424.7821 C 753.40965,432.34088 756.28835,439.51301 761.55225,444.88391 C 766.81625,450.12321 773.64295,452.96904 780.96315,452.91143 C 788.61245,452.97726 795.76805,450.02449 801.11435,444.60426 C 801.85455,443.84759 802.59475,443.04152 803.25285,442.21079 C 808.43455,448.79073 816.33045,452.98548 825.13115,452.91143 C 832.53365,452.96904 839.60705,450.09855 844.95325,444.80985 C 850.29955,439.49656 853.26055,432.38199 853.17825,424.7821 L 853.17825,367.75034 L 841.16985,367.75034"
         style="fill:#000000;fill-rule:nonzero;stroke:none"
         id="path27760" />
      <path
         d="M 934.85195,367.42136 L 908.44985,367.42136 C 884.67975,367.09232 865.02215,386.07553 864.69315,409.73044 C 865.02215,434.11744 884.67975,453.73394 908.44985,453.627 C 913.46715,453.71749 918.23755,452.83744 922.76135,451.15954 L 922.76135,438.69872 L 921.36305,438.69872 L 920.21155,439.24158 C 916.59265,440.87015 912.80915,441.62683 908.61435,441.55277 C 891.17755,441.62683 876.94835,427.3565 876.70165,409.73867 C 876.94835,392.62258 890.84845,379.26526 908.36765,379.51203 C 908.44985,379.51203 921.03405,379.51203 928.76545,379.51203 L 928.76545,451.86688 L 940.85615,451.86688 L 940.85615,367.42136 L 934.85195,367.42136"
         style="fill:#000000;fill-rule:nonzero;stroke:none"
         id="path27762" />
      <path
         d="M 984.69515,440.8372 C 980.66495,440.7961 976.88145,439.16759 974.00275,436.2477 C 971.37075,433.52525 969.97245,430.01318 970.05475,426.35306 C 970.05475,426.27085 970.05475,401.5631 970.05475,379.51203 L 998.92435,379.51203 L 998.92435,367.42136 L 970.05475,367.42136 C 970.05475,355.08393 970.05475,345.70749 970.05475,345.70749 L 958.04635,345.70749 L 958.04635,426.20502 C 957.79965,432.97417 960.43155,439.57055 965.36655,444.63715 C 970.38375,449.90111 977.29275,452.83744 984.69515,452.91143 C 984.69515,452.91143 1001.803,452.91143 1001.803,452.91143 L 1001.803,440.8372 L 984.69515,440.8372"
         style="fill:#000000;fill-rule:nonzero;stroke:none"
         id="path27764" />
      <path
         d="M 1072.5375,423.03021 C 1067.5203,434.35598 1056.2522,441.62683 1043.9148,441.55277 C 1035.2785,441.58572 1027.3004,438.29569 1021.2962,432.29149 C 1015.2919,426.30374 1012.0842,418.34199 1012.1664,409.86205 C 1012.0019,392.56503 1026.3134,378.36054 1043.9148,378.11378 C 1054.1137,378.36054 1063.2434,383.13098 1068.8363,391.175 L 1078.7885,384.28246 C 1070.9748,373.0143 1058.3084,366.35209 1043.997,366.02311 C 1019.4867,366.35209 999.91135,386.04264 1000.0758,409.86205 C 999.99355,421.50858 1004.435,432.53004 1012.7422,440.82076 C 1021.0494,449.12799 1032.0709,453.67639 1043.9148,453.627 C 1060.9404,453.73394 1076.5678,443.65837 1083.559,427.95698 L 1072.5375,423.03021"
         style="fill:#000000;fill-rule:nonzero;stroke:none"
         id="path27766" />
      <path
         d="M 1128.5495,366.02311 C 1119.5843,365.85862 1110.8658,369.14859 1104.0391,375.31727 L 1104.0391,345.70749 L 1091.9484,345.70749 L 1091.9484,451.86688 L 1104.0391,451.86688 L 1104.0391,402.60765 C 1103.9569,396.00305 1106.5066,389.79319 1111.1949,385.10497 C 1115.8831,380.49903 1122.0518,377.94929 1128.5495,378.11378 C 1142.4497,377.86701 1153.7178,388.94602 1153.9646,402.79687 C 1153.9646,402.68993 1153.9646,451.86688 1153.9646,451.86688 L 1166.0553,451.86688 L 1166.0553,402.68993 C 1165.7262,382.06177 1148.8651,365.69407 1128.5495,366.02311"
         style="fill:#000000;fill-rule:nonzero;stroke:none"
         id="path27768" />
      <path
         d="M 1183.5744,369.88882 L 1265.4949,369.88882 L 1265.4949,451.86688 L 1183.5744,451.86688 L 1183.5744,369.88882 z "
         style="fill:#da0021;fill-rule:nonzero;stroke:#da0021;stroke-width:0.28787318;stroke-linecap:butt;stroke-linejoin:miter;stroke-miterlimit:3.86400008;stroke-dasharray:none"
         id="path27770" />
      <path
         d="M 1259.8197,400.55144 L 1234.8158,400.55144 L 1234.8158,375.64625 L 1214.1712,375.64625 L 1214.1712,400.55144 L 1188.5094,400.55144 L 1188.5094,421.22071 L 1214.1712,421.22071 L 1214.1712,446.87435 L 1234.8158,446.87435 L 1234.8158,421.22071 L 1259.8197,421.22071 L 1259.8197,400.55144"
         style="fill:#fffeff;fill-rule:nonzero;stroke:none;stroke-width:0.035;stroke-linecap:butt;stroke-linejoin:miter;stroke-miterlimit:3.86400008;stroke-dasharray:none"
         id="path27772" />
    </g>
  </g>
</svg>
